<svg width="40" height="40" viewBox="0 0 40 40" fill="none" xmlns="http://www.w3.org/2000/svg">
<g clip-path="url(#clip0_1_14)">
<path d="M17.811 29.01H22.19C23.168 29.01 23.961 29.804 23.961 30.781V36.931H16.039V30.781C16.039 29.803 16.833 29.01 17.81 29.01H17.811Z" fill="#6B7683"/>
<path d="M35.116 14.626L21.037 3.431C20.43 2.948 19.57 2.948 18.962 3.431L4.88501 14.626C4.09001 15.258 3.62601 16.219 3.62601 17.235V32.932C3.62601 35.141 5.41701 36.932 7.62601 36.932H16.667V30.677C16.667 29.757 17.413 29.01 18.334 29.01H21.667C22.587 29.01 23.334 29.756 23.334 30.677V36.932H32.374C34.583 36.932 36.374 35.141 36.374 32.932V17.235C36.374 16.219 35.912 15.258 35.116 14.626Z" fill="#D0D5DA"/>
<path d="M35.115 14.625L21.037 3.431C20.43 2.948 19.57 2.948 18.963 3.431L4.884 14.626C4.089 15.258 3.625 16.219 3.625 17.235V22.294L18.962 10.098C19.569 9.615 20.429 9.615 21.037 10.098L36.373 22.294V17.235C36.373 16.219 35.909 15.258 35.114 14.625H35.115Z" fill="#007FF2"/>
</g>
<defs>
<clipPath id="clip0_1_14">
<rect width="40" height="40" fill="white"/>
</clipPath>
</defs>
</svg>
