<svg width="41" height="41" viewBox="0 0 41 41" fill="none" xmlns="http://www.w3.org/2000/svg">
<g clip-path="url(#clip0_1_2)">
<path d="M11.3729 26.897C11.3349 27.096 11.3119 27.299 11.3119 27.504C11.3119 30.531 15.5479 32.984 20.7739 32.984C25.9999 32.984 30.2359 30.53 30.2359 27.504C30.2359 27.298 30.2129 27.096 30.1749 26.897C27.6569 29.089 24.3749 30.427 20.7739 30.427C17.1729 30.427 13.8899 29.09 11.3729 26.897Z" fill="#AFB7C0"/>
<path d="M20.7739 8.53996C14.9439 8.53996 10.0789 10.928 8.92989 14.107C11.0569 16.509 15.6189 18.218 20.7739 18.218C25.9289 18.218 30.4919 16.509 32.6179 14.107C32.5529 13.929 32.4719 13.754 32.3839 13.58C30.9129 10.668 26.2759 8.53896 20.7729 8.53896L20.7739 8.53996Z" fill="#6E4944"/>
<path d="M33.8959 11.135C33.8959 11.485 33.8259 11.825 33.7259 12.165C33.5359 12.845 33.1559 13.495 32.6159 14.105C32.5559 13.925 32.4759 13.755 32.3859 13.585C30.9159 10.665 26.2759 8.54496 20.7759 8.54496C14.9459 8.54496 10.0759 10.925 8.92588 14.105C8.12588 13.195 7.65588 12.185 7.65588 11.135C7.65588 7.29496 13.6659 4.04496 20.7759 4.04496C27.8859 4.04496 33.8959 7.29496 33.8959 11.135Z" fill="#D0D5DA"/>
<path d="M35.1059 12.215V11.335L35.0859 11.395C35.0559 11.875 34.9759 12.345 34.8159 12.805C34.7259 13.075 34.6059 13.345 34.4659 13.605C32.6459 16.985 27.2059 19.435 20.7759 19.435C14.3459 19.435 8.89588 16.985 7.08588 13.605C6.94588 13.345 6.82588 13.075 6.72588 12.805C6.56588 12.345 6.48588 11.875 6.45588 11.395L6.43588 11.335V16.095C6.43588 17.725 6.72588 19.285 7.22588 20.755C8.05588 23.155 9.49588 25.265 11.3759 26.895C13.8959 29.085 17.1759 30.425 20.7759 30.425C24.3759 30.425 27.6559 29.085 30.1759 26.895C31.3859 25.835 32.4259 24.575 33.2259 23.165H34.3859C35.1759 23.165 35.9259 22.995 36.6059 22.695C38.5359 21.845 39.8959 19.915 39.8959 17.665C39.8959 14.875 37.8059 12.575 35.1059 12.215ZM34.3859 20.775H34.3059C34.3126 20.7683 34.3159 20.7616 34.3159 20.755C34.8259 19.285 35.1059 17.725 35.1059 16.095V14.655C36.4759 14.975 37.4959 16.205 37.4959 17.665C37.4959 19.385 36.1059 20.775 34.3859 20.775Z" fill="#D0D5DA"/>
<path d="M34.3189 20.753C34.3159 20.761 34.3129 20.768 34.3109 20.776H34.3559C34.3439 20.768 34.3299 20.761 34.3189 20.753Z" fill="#E5E8EB"/>
<path d="M34.3899 23.168H33.2299C32.4259 24.579 31.3899 25.837 30.1729 26.897C30.2109 27.097 30.2339 27.299 30.2339 27.504C30.2339 30.531 25.9979 32.984 20.7719 32.984C15.5459 32.984 11.3099 30.53 11.3099 27.504C11.3099 27.298 11.3329 27.096 11.3709 26.897C9.49588 25.264 8.05289 23.155 7.22589 20.753C4.52889 22.567 2.88889 24.922 2.88889 27.504C2.88889 33.224 10.8949 37.862 20.7709 37.862C30.6469 37.862 38.6539 33.225 38.6539 27.504C38.6539 25.768 37.9079 24.135 36.6049 22.698C35.9259 22.998 35.1779 23.168 34.3899 23.168Z" fill="#E5E8EB"/>
<path d="M35.0359 10.285C34.9359 9.72496 34.7459 9.18496 34.4659 8.66496C34.1859 8.14496 33.8159 7.64496 33.3759 7.17496C33.1559 6.93496 32.9159 6.71496 32.6659 6.48496C32.1459 6.04496 31.5559 5.63496 30.9059 5.26496C28.3159 3.75496 24.7359 2.82496 20.7759 2.82496C16.8159 2.82496 13.2259 3.75496 10.6359 5.26496C9.98588 5.63496 9.40588 6.04496 8.88588 6.48496C8.62588 6.71496 8.38588 6.93496 8.16588 7.17496C7.72588 7.64496 7.36588 8.14496 7.08588 8.66496C6.80588 9.18496 6.60588 9.72496 6.51588 10.285C6.46588 10.565 6.43588 10.845 6.43588 11.135C6.43588 11.225 6.45588 11.305 6.45588 11.395C6.48588 11.875 6.56588 12.345 6.72588 12.805C6.82588 13.075 6.94588 13.345 7.08588 13.605C8.89588 16.985 14.3359 19.435 20.7759 19.435C27.2159 19.435 32.6459 16.985 34.4659 13.605C34.6059 13.345 34.7259 13.075 34.8159 12.805C34.9759 12.345 35.0559 11.875 35.0859 11.395C35.0959 11.305 35.1059 11.225 35.1059 11.135C35.1059 10.845 35.0859 10.565 35.0359 10.285ZM33.7259 12.165C33.5359 12.845 33.1559 13.495 32.6159 14.105C30.4959 16.505 25.9259 18.215 20.7759 18.215C15.6259 18.215 11.0559 16.505 8.92588 14.105C8.12588 13.195 7.65588 12.185 7.65588 11.135C7.65588 7.29496 13.6659 4.04496 20.7759 4.04496C27.8859 4.04496 33.8959 7.29496 33.8959 11.135C33.8959 11.485 33.8259 11.825 33.7259 12.165Z" fill="#E5E8EB"/>
</g>
<defs>
<clipPath id="clip0_1_2">
<rect width="40" height="40" fill="white" transform="translate(0.765884 0.344959)"/>
</clipPath>
</defs>
</svg>
